<?xml version="1.0" encoding="UTF-8"?>
<svg id="Layer_2" data-name="Layer 2" xmlns="http://www.w3.org/2000/svg" xmlns:xlink="http://www.w3.org/1999/xlink" viewBox="0 0 502.91 463">
  <defs>
    <style>
      .cls-1 {
        fill: url(#linear-gradient);
      }

      .cls-2 {
        fill: #3a3a3a;
      }

      .cls-3 {
        fill: url(#linear-gradient-2);
      }
    </style>
    <linearGradient id="linear-gradient" x1="391.37" y1="306.49" x2="402.52" y2="-18.75" gradientUnits="userSpaceOnUse">
      <stop offset="0" stop-color="#404041"/>
      <stop offset=".35" stop-color="#424344"/>
      <stop offset=".63" stop-color="#4c4c4e"/>
      <stop offset=".84" stop-color="#58595b"/>
    </linearGradient>
    <linearGradient id="linear-gradient-2" x1="299.97" y1="231.5" x2="496.18" y2="231.5" gradientUnits="userSpaceOnUse">
      <stop offset=".01" stop-color="#ffc222"/>
      <stop offset=".12" stop-color="#ffc71f"/>
      <stop offset=".55" stop-color="#ffd717"/>
      <stop offset=".89" stop-color="#ffdd15"/>
    </linearGradient>
  </defs>
  <g id="Layer_1-2" data-name="Layer 1">
    <path class="cls-1" d="m450.52,319.72c-.88-29.36-1.76-58.72-2.63-88.08-28.78,6.33-57.55,12.66-86.33,18.99-7.45,23.01-14.89,46.02-22.34,69.03-20.1.02-40.2.04-60.3.06C326.19,213.15,373.45,106.57,420.72,0h66.38l15.81,319.72h-52.38Zm-6.06-273.49c-27.63,68.13-55.26,136.26-82.9,204.4,29.3-5.33,58.59-10.66,87.89-15.99-1.66-62.8-3.33-125.61-4.99-188.41Z"/>
    <path class="cls-3" d="m462.94,0c-27.91,69.92-55.81,139.85-83.72,209.77,38.99-8.69,77.97-17.39,116.96-26.08-54.29,93.1-108.58,186.21-162.87,279.31,27.29-73.09,54.59-146.18,81.88-219.26-38.41,9.51-76.81,19.01-115.22,28.52C354.3,181.5,408.62,90.75,462.94,0Z"/>
    <g>
      <path class="cls-2" d="m.7,122.34c-.47-.46-.7-1.23-.7-2.29v-63.7c0-1.06.23-1.83.7-2.29.46-.46,1.22-.69,2.29-.69h34.73c.73,0,1.25.23,1.54.69s.45,1.23.45,2.29v1.59c0,1.07-.15,1.83-.45,2.29-.3.47-.81.7-1.54.7H8.76v22.69h25.98c.73,0,1.24.23,1.54.69.3.46.45,1.23.45,2.29v1.59c0,1.07-.15,1.83-.45,2.29-.3.47-.81.7-1.54.7H8.76v24.28h29.06c.73,0,1.25.23,1.54.7.3.46.45,1.23.45,2.29v1.59c0,1.06-.15,1.83-.45,2.29-.3.46-.81.69-1.54.69H2.99c-1.07,0-1.83-.23-2.29-.69Z"/>
      <path class="cls-2" d="m82.61,102.33l-17.72-30.85c-.6-1-1.39-2.49-2.39-4.48l-.4.1c.13,1.2.2,3.02.2,5.48v48.47c0,1.46-1.33,2.19-3.98,2.19h-.7c-2.66,0-3.98-.73-3.98-2.19V55.36c0-1.46,1.32-2.19,3.98-2.19h3.58c2.12,0,3.52.6,4.18,1.79l18.81,32.65c1.2,2.06,2.06,4.15,2.58,6.27.53-1.66,1.56-3.84,3.09-6.57l18.31-32.35c.66-1.2,2.06-1.79,4.18-1.79h3.28c2.66,0,3.98.73,3.98,2.19v65.69c0,1.46-1.32,2.19-3.98,2.19h-.69c-2.65,0-3.98-.73-3.98-2.19v-47.87c0-2.46.06-4.28.2-5.48l-.4-.1c-.99,1.99-1.79,3.48-2.39,4.48l-17.42,30.26c-.47.86-1.2,1.3-2.19,1.3h-3.98c-1,0-1.73-.43-2.19-1.3Z"/>
      <path class="cls-2" d="m141.83,122.24c-3.38-.93-5.94-2.06-7.66-3.38-1.26-.93-1.89-1.76-1.89-2.49,0-.8.45-1.89,1.34-3.29.9-1.39,1.61-2.09,2.14-2.09.26,0,.96.33,2.09.99,2.06,1.13,4.26,2.09,6.62,2.89,2.35.8,5.16,1.2,8.41,1.2,3.85,0,6.98-1.08,9.41-3.24,2.42-2.15,3.63-4.99,3.63-8.51,0-2.45-.66-4.49-1.99-6.12-1.33-1.62-2.94-2.92-4.83-3.88-1.89-.96-4.63-2.14-8.21-3.54-3.85-1.52-6.9-2.92-9.16-4.18-2.26-1.26-4.18-3.14-5.77-5.62-1.59-2.49-2.39-5.76-2.39-9.8,0-3.59.91-6.77,2.74-9.56,1.83-2.79,4.41-4.96,7.76-6.52,3.35-1.56,7.21-2.34,11.6-2.34,2.25,0,4.78.31,7.56.94,2.79.63,4.94,1.48,6.47,2.54,1.33.8,1.99,1.66,1.99,2.59,0,.73-.42,1.79-1.25,3.19-.83,1.39-1.48,2.09-1.94,2.09-.33,0-.81-.17-1.45-.5-.63-.33-1.04-.56-1.24-.69-3.32-1.72-6.77-2.59-10.35-2.59-3.85,0-6.95.99-9.31,2.98-2.35,1.99-3.53,4.74-3.53,8.26,0,2.26.58,4.08,1.74,5.48,1.16,1.39,2.49,2.44,3.98,3.14,1.5.69,4.1,1.77,7.82,3.23,3.98,1.53,7.23,3.01,9.75,4.43,2.52,1.43,4.66,3.48,6.42,6.17,1.76,2.69,2.64,6.12,2.64,10.3,0,5.97-1.99,10.68-5.97,14.13-3.98,3.45-9.36,5.18-16.13,5.18-3.98,0-7.66-.46-11.04-1.39Z"/>
      <path class="cls-2" d="m234.95,122.31c-.33-.48-.37-.99-.37-1.27V50.38c0-1.46,1.33-2.19,3.98-2.19h.4c2.65,0,3.98.73,3.98,2.19v25.08c2.12-1.66,4.29-2.92,6.52-3.78,2.22-.86,4.79-1.3,7.71-1.3,3.98,0,7.5,1.03,10.55,3.09,3.05,2.06,5.42,5.08,7.11,9.06,1.69,3.98,2.54,8.79,2.54,14.43,0,5.18-.78,9.79-2.34,13.84-1.56,4.05-3.8,7.2-6.72,9.45-1.06.82-2.19,1.49-3.39,2.02-2.39,1.04-4.57,1.3-6.86,1.37-6.48.2-22.6-.56-23.12-1.32Zm30.49-11.17c3.26-5.4,3.18-12.05,3.18-14.88,0-5.97-1.13-10.55-3.38-13.73-2.25-3.19-5.57-4.78-9.95-4.78-2.19,0-4.36.39-6.52,1.14-2.16.76-4.1,1.88-5.82,3.34-.03,10.3-.06,20.6-.09,30.9,1.31.92,3.41,2.15,6.24,2.86,3.27.82,5.87.54,7.28.38,2.14-.25,3.98-.46,5.87-1.73,1.02-.68,2.08-1.67,3.18-3.5Z"/>
      <path class="cls-2" d="m325.6,77.02c-.02.33-.15.79-.38,1.37l-29.32,66.24c-.61,1.36-2.2,1.97-4.79,1.83l-1.5-.08c-2.19-.12-3.25-.72-3.19-1.77.01-.27.21-.82.59-1.66l9.48-19.81c-4.82-14.96-9.64-29.92-14.45-44.87.08-.43.29-1.28,1-2,1.53-1.57,5.54-1.15,6-1,.71.24.97.91,1,1,3.04,8.73,6.07,17.46,9.11,26.19.89,2.97,1.77,6.38,2.62,10.21h.2c.16-.44.31-.88.47-1.31.16-.42.31-.83.47-1.22l2.9-7.32,11.44-26.38c.39-1.04,1.78-1.49,4.16-1.36l.3.02c2.65.15,3.94.79,3.88,1.91Z"/>
    </g>
  </g>
</svg>